<svg width="243" height="77" viewBox="0 0 243 77" fill="none" xmlns="http://www.w3.org/2000/svg">
<path d="M29.1987 76H0.145267L12.493 1.62324H40.3843C48.035 1.62324 54.4267 3.16065 59.5595 6.23547C64.6923 9.31029 68.3361 13.7046 70.4909 19.4185C72.6457 25.1323 73.0694 31.9356 71.762 39.8285C70.503 47.4308 67.9487 53.9315 64.0991 59.3306C60.2737 64.7297 55.3831 68.8577 49.4271 71.7146C43.4954 74.5715 36.7526 76 29.1987 76ZM23.1701 58.8585H30.5061C34.1862 58.8585 37.4668 58.2169 40.3479 56.9337C43.2533 55.6263 45.6744 53.4473 47.6113 50.3967C49.5724 47.3219 50.9888 43.1212 51.8604 37.7947C52.6835 32.7588 52.6593 28.8729 51.7877 26.1371C50.9161 23.377 49.2577 21.4643 46.8123 20.399C44.367 19.3095 41.2074 18.7648 37.3336 18.7648H29.8524L23.1701 58.8585ZM107.688 1.62324L95.3406 76H75.1485L87.4962 1.62324H107.688ZM153.429 24.866C153.647 22.4691 153.066 20.5927 151.686 19.2369C150.306 17.8568 147.982 17.1668 144.713 17.1668C142.631 17.1668 140.888 17.4089 139.484 17.8932C138.104 18.3774 137.026 19.0432 136.251 19.8906C135.501 20.738 135.029 21.7185 134.835 22.8322C134.617 23.7038 134.629 24.5028 134.871 25.2291C135.138 25.9313 135.634 26.5729 136.36 27.1539C137.111 27.735 138.092 28.2555 139.302 28.7156C140.537 29.1756 142.002 29.5872 143.696 29.9503L149.507 31.2577C153.478 32.1293 156.807 33.2794 159.494 34.7078C162.206 36.1121 164.336 37.7826 165.886 39.7195C167.435 41.6564 168.452 43.8233 168.937 46.2202C169.445 48.6171 169.457 51.232 168.973 54.0647C168.15 58.9553 166.249 63.0954 163.271 66.485C160.293 69.8746 156.407 72.4531 151.613 74.2205C146.82 75.9879 141.275 76.8716 134.98 76.8716C128.54 76.8716 123.068 75.9153 118.565 74.0026C114.086 72.0657 110.842 69.1119 108.832 65.1413C106.847 61.1464 106.363 56.05 107.38 49.8519H126.555C126.264 52.1278 126.506 54.0405 127.281 55.59C128.056 57.1395 129.303 58.3137 131.022 59.1127C132.741 59.9117 134.884 60.3112 137.45 60.3112C139.629 60.3112 141.493 60.0448 143.043 59.5122C144.592 58.9795 145.815 58.2411 146.711 57.2969C147.607 56.3526 148.151 55.2752 148.345 54.0647C148.539 52.951 148.345 51.9583 147.764 51.0867C147.183 50.2151 146.13 49.4282 144.604 48.7261C143.079 48.024 140.985 47.3824 138.322 46.8013L131.203 45.2034C124.884 43.7507 120.115 41.3538 116.895 38.0127C113.675 34.6715 112.537 30.0956 113.481 24.2849C114.256 19.5395 116.205 15.3994 119.328 11.8646C122.475 8.30552 126.47 5.54545 131.312 3.58434C136.179 1.59903 141.566 0.606369 147.473 0.606369C153.478 0.606369 158.502 1.61113 162.545 3.62066C166.612 5.63019 169.53 8.45079 171.297 12.0825C173.089 15.7141 173.573 19.9753 172.75 24.866H153.429ZM221.541 24.866C221.759 22.4691 221.178 20.5927 219.798 19.2369C218.418 17.8568 216.094 17.1668 212.825 17.1668C210.743 17.1668 209 17.4089 207.596 17.8932C206.216 18.3774 205.138 19.0432 204.364 19.8906C203.613 20.738 203.141 21.7185 202.947 22.8322C202.729 23.7038 202.741 24.5028 202.984 25.2291C203.25 25.9313 203.746 26.5729 204.473 27.1539C205.223 27.735 206.204 28.2555 207.414 28.7156C208.649 29.1756 210.114 29.5872 211.809 29.9503L217.619 31.2577C221.59 32.1293 224.919 33.2794 227.606 34.7078C230.318 36.1121 232.449 37.7826 233.998 39.7195C235.548 41.6564 236.564 43.8233 237.049 46.2202C237.557 48.6171 237.569 51.232 237.085 54.0647C236.262 58.9553 234.361 63.0954 231.383 66.485C228.405 69.8746 224.519 72.4531 219.726 74.2205C214.932 75.9879 209.387 76.8716 203.092 76.8716C196.652 76.8716 191.181 75.9153 186.677 74.0026C182.198 72.0657 178.954 69.1119 176.944 65.1413C174.959 61.1464 174.475 56.05 175.492 49.8519H194.667C194.376 52.1278 194.619 54.0405 195.393 55.59C196.168 57.1395 197.415 58.3137 199.134 59.1127C200.853 59.9117 202.996 60.3112 205.562 60.3112C207.741 60.3112 209.605 60.0448 211.155 59.5122C212.704 58.9795 213.927 58.2411 214.823 57.2969C215.719 56.3526 216.263 55.2752 216.457 54.0647C216.651 52.951 216.457 51.9583 215.876 51.0867C215.295 50.2151 214.242 49.4282 212.716 48.7261C211.191 48.024 209.097 47.3824 206.434 46.8013L199.316 45.2034C192.996 43.7507 188.227 41.3538 185.007 38.0127C181.787 34.6715 180.649 30.0956 181.593 24.2849C182.368 19.5395 184.317 15.3994 187.44 11.8646C190.587 8.30552 194.582 5.54545 199.425 3.58434C204.291 1.59903 209.678 0.606369 215.585 0.606369C221.59 0.606369 226.614 1.61113 230.657 3.62066C234.724 5.63019 237.642 8.45079 239.409 12.0825C241.201 15.7141 241.685 19.9753 240.862 24.866H221.541Z" fill="url(#paint0_linear_4_44)"/>
<defs>
<linearGradient id="paint0_linear_4_44" x1="4.76913" y1="-18.9103" x2="101.08" y2="168.016" gradientUnits="userSpaceOnUse">
<stop stop-color="#94B2FF"/>
<stop offset="1" stop-color="#9E00FF"/>
</linearGradient>
</defs>
</svg>
